<svg xmlns="http://www.w3.org/2000/svg" xmlns:xlink="http://www.w3.org/1999/xlink" width="160" zoomAndPan="magnify" viewBox="0 0 120 30.000001" height="40" preserveAspectRatio="xMidYMid meet" version="1.0"><defs><g/><clipPath id="id1"><path d="M 2.929688 1.453125 L 29.058594 1.453125 L 29.058594 27.582031 L 2.929688 27.582031 Z M 2.929688 1.453125 " clip-rule="nonzero"/></clipPath></defs><g clip-path="url(#id1)"><path fill="#4385f5" d="M 4.117188 2.578125 L 2.929688 26.332031 C 2.921875 26.496094 2.945312 26.652344 3.003906 26.804688 C 3.058594 26.957031 3.144531 27.09375 3.257812 27.210938 C 3.371094 27.328125 3.5 27.421875 3.648438 27.484375 C 3.800781 27.550781 3.957031 27.582031 4.117188 27.582031 L 27.871094 27.582031 C 28.039062 27.582031 28.203125 27.546875 28.355469 27.480469 C 28.511719 27.414062 28.644531 27.316406 28.757812 27.191406 C 28.871094 27.066406 28.953125 26.925781 29.007812 26.765625 C 29.058594 26.605469 29.078125 26.441406 29.058594 26.273438 L 27.871094 14.398438 C 27.839844 14.09375 27.710938 13.839844 27.484375 13.632812 C 27.257812 13.429688 26.992188 13.328125 26.683594 13.328125 L 23.65625 13.328125 L 23.121094 2.578125 C 23.113281 2.425781 23.078125 2.28125 23.015625 2.144531 C 22.949219 2.003906 22.863281 1.882812 22.753906 1.777344 C 22.644531 1.671875 22.515625 1.59375 22.375 1.535156 C 22.234375 1.480469 22.085938 1.453125 21.933594 1.453125 L 5.304688 1.453125 C 5.152344 1.453125 5.007812 1.480469 4.863281 1.535156 C 4.722656 1.59375 4.597656 1.671875 4.488281 1.777344 C 4.375 1.882812 4.289062 2.003906 4.226562 2.144531 C 4.160156 2.28125 4.125 2.425781 4.117188 2.578125 Z M 25.617188 15.703125 L 26.566406 25.207031 L 24.25 25.207031 L 23.777344 15.703125 Z M 6.4375 3.828125 L 20.808594 3.828125 L 21.34375 14.570312 L 21.632812 20.453125 L 5.605469 20.453125 Z M 5.484375 22.828125 L 21.757812 22.828125 L 21.800781 23.71875 L 21.871094 25.207031 L 5.367188 25.207031 Z M 18.371094 8.578125 L 18.371094 12.140625 C 18.371094 12.453125 18.339844 12.761719 18.28125 13.066406 C 18.21875 13.375 18.128906 13.671875 18.007812 13.957031 C 17.890625 14.246094 17.742188 14.519531 17.570312 14.78125 C 17.398438 15.039062 17.199219 15.28125 16.980469 15.5 C 16.757812 15.71875 16.519531 15.917969 16.257812 16.089844 C 16 16.265625 15.726562 16.410156 15.4375 16.53125 C 15.148438 16.648438 14.851562 16.738281 14.546875 16.800781 C 14.242188 16.859375 13.933594 16.890625 13.621094 16.890625 C 13.308594 16.890625 13 16.859375 12.691406 16.800781 C 12.386719 16.738281 12.089844 16.648438 11.800781 16.53125 C 11.515625 16.410156 11.238281 16.265625 10.980469 16.089844 C 10.722656 15.917969 10.480469 15.71875 10.261719 15.5 C 10.039062 15.28125 9.84375 15.039062 9.671875 14.78125 C 9.496094 14.519531 9.351562 14.246094 9.230469 13.957031 C 9.113281 13.671875 9.019531 13.375 8.960938 13.066406 C 8.898438 12.761719 8.871094 12.453125 8.871094 12.140625 L 8.871094 8.578125 C 8.871094 8.421875 8.898438 8.269531 8.960938 8.125 C 9.019531 7.976562 9.105469 7.847656 9.21875 7.738281 C 9.328125 7.625 9.457031 7.539062 9.601562 7.480469 C 9.746094 7.421875 9.898438 7.390625 10.058594 7.390625 C 10.214844 7.390625 10.367188 7.421875 10.511719 7.480469 C 10.65625 7.539062 10.785156 7.625 10.898438 7.738281 C 11.007812 7.847656 11.09375 7.976562 11.152344 8.125 C 11.214844 8.269531 11.246094 8.421875 11.246094 8.578125 L 11.246094 12.140625 C 11.246094 12.457031 11.304688 12.757812 11.425781 13.050781 C 11.546875 13.339844 11.71875 13.597656 11.941406 13.820312 C 12.164062 14.042969 12.421875 14.214844 12.710938 14.335938 C 13.003906 14.457031 13.304688 14.515625 13.621094 14.515625 C 13.933594 14.515625 14.238281 14.457031 14.527344 14.335938 C 14.820312 14.214844 15.078125 14.042969 15.300781 13.820312 C 15.523438 13.597656 15.695312 13.339844 15.816406 13.050781 C 15.933594 12.757812 15.996094 12.457031 15.996094 12.140625 L 15.996094 8.578125 C 15.996094 8.421875 16.027344 8.269531 16.085938 8.125 C 16.144531 7.976562 16.230469 7.847656 16.34375 7.738281 C 16.453125 7.625 16.582031 7.539062 16.730469 7.480469 C 16.875 7.421875 17.027344 7.390625 17.183594 7.390625 C 17.339844 7.390625 17.492188 7.421875 17.636719 7.480469 C 17.78125 7.539062 17.910156 7.625 18.023438 7.738281 C 18.132812 7.847656 18.21875 7.976562 18.28125 8.125 C 18.339844 8.269531 18.371094 8.421875 18.371094 8.578125 Z M 18.371094 8.578125 " fill-opacity="1" fill-rule="nonzero"/></g><g fill="#000000" fill-opacity="1"><g transform="translate(28.007429, 23.813365)"><g><path d="M 14.875 -16.03125 L 17.171875 -16.03125 C 17.722656 -16.03125 18 -15.742188 18 -15.171875 L 18.6875 0 L 16.640625 0 L 16.0625 -14.328125 L 15.5625 -14.328125 L 11.984375 -2.515625 C 11.859375 -2.046875 11.566406 -1.8125 11.109375 -1.8125 L 9.265625 -1.8125 C 8.785156 -1.8125 8.476562 -2.046875 8.34375 -2.515625 L 4.765625 -14.328125 L 4.296875 -14.328125 L 3.734375 0 L 1.703125 0 L 2.328125 -15.171875 C 2.359375 -15.742188 2.644531 -16.03125 3.1875 -16.03125 L 5.5 -16.03125 C 5.9375 -16.03125 6.222656 -15.796875 6.359375 -15.328125 L 9.359375 -5.546875 C 9.453125 -5.273438 9.570312 -4.863281 9.71875 -4.3125 C 9.863281 -3.757812 9.945312 -3.453125 9.96875 -3.390625 L 10.390625 -3.390625 C 10.429688 -3.554688 10.515625 -3.890625 10.640625 -4.390625 C 10.773438 -4.898438 10.890625 -5.300781 10.984375 -5.59375 L 13.984375 -15.328125 C 14.109375 -15.796875 14.40625 -16.03125 14.875 -16.03125 Z M 14.875 -16.03125 "/></g></g></g><g fill="#000000" fill-opacity="1"><g transform="translate(46.480365, 23.813365)"><g><path d="M 1.875 -9.625 L 1.703125 -11.078125 C 3.773438 -11.421875 5.59375 -11.59375 7.15625 -11.59375 C 8.46875 -11.59375 9.441406 -11.316406 10.078125 -10.765625 C 10.710938 -10.210938 11.03125 -9.28125 11.03125 -7.96875 L 11.03125 0 L 9.484375 0 L 9.25 -1.859375 C 8.707031 -1.316406 8.03125 -0.835938 7.21875 -0.421875 C 6.40625 -0.00390625 5.523438 0.203125 4.578125 0.203125 C 3.535156 0.203125 2.707031 -0.0664062 2.09375 -0.609375 C 1.488281 -1.160156 1.1875 -1.941406 1.1875 -2.953125 L 1.1875 -4.1875 C 1.1875 -5.0625 1.457031 -5.742188 2 -6.234375 C 2.550781 -6.722656 3.328125 -6.96875 4.328125 -6.96875 L 9.03125 -6.96875 L 9.03125 -7.96875 C 9.03125 -8.675781 8.867188 -9.175781 8.546875 -9.46875 C 8.222656 -9.769531 7.617188 -9.921875 6.734375 -9.921875 C 5.617188 -9.921875 4 -9.820312 1.875 -9.625 Z M 3.203125 -3.90625 L 3.203125 -3.1875 C 3.203125 -2.59375 3.34375 -2.160156 3.625 -1.890625 C 3.90625 -1.617188 4.351562 -1.484375 4.96875 -1.484375 C 5.5625 -1.472656 6.234375 -1.613281 6.984375 -1.90625 C 7.734375 -2.195312 8.414062 -2.625 9.03125 -3.1875 L 9.03125 -5.453125 L 4.671875 -5.453125 C 4.140625 -5.441406 3.757812 -5.300781 3.53125 -5.03125 C 3.3125 -4.769531 3.203125 -4.394531 3.203125 -3.90625 Z M 3.203125 -3.90625 "/></g></g></g><g fill="#000000" fill-opacity="1"><g transform="translate(57.331525, 23.813365)"><g><path d="M 8.90625 -11.59375 L 8.671875 -9.734375 L 8.015625 -9.734375 C 7.441406 -9.734375 6.847656 -9.617188 6.234375 -9.390625 C 5.628906 -9.171875 4.8125 -8.804688 3.78125 -8.296875 L 3.78125 0 L 1.8125 0 L 1.8125 -11.3125 L 3.34375 -11.3125 L 3.5625 -9.53125 C 5.3125 -10.90625 6.921875 -11.59375 8.390625 -11.59375 Z M 8.90625 -11.59375 "/></g></g></g><g fill="#000000" fill-opacity="1"><g transform="translate(64.7436, 23.813365)"><g><path d="M 5.203125 -5.671875 L 3.671875 -5.671875 C 3.742188 -4.972656 3.78125 -4.367188 3.78125 -3.859375 L 3.78125 0 L 1.8125 0 L 1.8125 -16.265625 L 3.8125 -16.265625 L 3.8125 -9.03125 C 3.8125 -8.28125 3.769531 -7.640625 3.6875 -7.109375 L 5.1875 -7.109375 L 8.765625 -11.3125 L 11.0625 -11.3125 L 7.5 -7.15625 C 7.269531 -6.832031 7.007812 -6.578125 6.71875 -6.390625 L 6.71875 -6.34375 C 7.019531 -6.113281 7.28125 -5.8125 7.5 -5.4375 L 11.4375 0 L 9.125 0 Z M 5.203125 -5.671875 "/></g></g></g><g fill="#000000" fill-opacity="1"><g transform="translate(74.665274, 23.813365)"><g><path d="M 8.625 -4.6875 L 3.34375 -4.6875 C 3.457031 -3.382812 3.773438 -2.507812 4.296875 -2.0625 C 4.828125 -1.613281 5.703125 -1.390625 6.921875 -1.390625 C 8.210938 -1.390625 9.519531 -1.484375 10.84375 -1.671875 L 11.0625 -0.34375 C 10.050781 0.0703125 8.585938 0.28125 6.671875 0.28125 C 4.710938 0.28125 3.316406 -0.171875 2.484375 -1.078125 C 1.660156 -1.984375 1.25 -3.519531 1.25 -5.6875 C 1.25 -7.875 1.648438 -9.40625 2.453125 -10.28125 C 3.265625 -11.15625 4.597656 -11.59375 6.453125 -11.59375 C 8.140625 -11.59375 9.367188 -11.285156 10.140625 -10.671875 C 10.921875 -10.066406 11.3125 -9.144531 11.3125 -7.90625 C 11.34375 -5.757812 10.445312 -4.6875 8.625 -4.6875 Z M 3.328125 -6.234375 L 8.109375 -6.234375 C 8.929688 -6.234375 9.34375 -6.789062 9.34375 -7.90625 C 9.320312 -8.625 9.101562 -9.140625 8.6875 -9.453125 C 8.269531 -9.765625 7.554688 -9.921875 6.546875 -9.921875 C 5.359375 -9.921875 4.53125 -9.660156 4.0625 -9.140625 C 3.601562 -8.617188 3.359375 -7.648438 3.328125 -6.234375 Z M 3.328125 -6.234375 "/></g></g></g><g fill="#000000" fill-opacity="1"><g transform="translate(85.237588, 23.813365)"><g><path d="M 4.640625 -9.765625 L 4.640625 -3.109375 C 4.640625 -2.566406 4.753906 -2.179688 4.984375 -1.953125 C 5.222656 -1.722656 5.625 -1.609375 6.1875 -1.609375 L 7.90625 -1.609375 L 8.125 -0.09375 C 7.414062 0.101562 6.566406 0.203125 5.578125 0.203125 C 4.628906 0.203125 3.90625 -0.0546875 3.40625 -0.578125 C 2.914062 -1.109375 2.671875 -1.867188 2.671875 -2.859375 L 2.671875 -9.765625 L 0.625 -9.765625 L 0.625 -11.203125 L 2.671875 -11.296875 L 2.671875 -14.65625 L 4.640625 -14.65625 L 4.640625 -11.3125 L 8.25 -11.3125 L 8.25 -9.765625 Z M 4.640625 -9.765625 "/></g></g></g><g fill="#000000" fill-opacity="1"><g transform="translate(92.184912, 23.813365)"><g><path d="M 9.015625 -15.03125 L 6.6875 -15.03125 C 5.945312 -15.03125 5.425781 -14.882812 5.125 -14.59375 C 4.820312 -14.3125 4.671875 -13.820312 4.671875 -13.125 L 4.671875 -11.3125 L 8.296875 -11.3125 L 8.296875 -9.765625 L 4.671875 -9.765625 L 4.671875 0 L 2.6875 0 L 2.6875 -9.765625 L 0.65625 -9.765625 L 0.65625 -11.203125 L 2.6875 -11.296875 L 2.6875 -13.34375 C 2.6875 -14.4375 2.941406 -15.257812 3.453125 -15.8125 C 3.972656 -16.375 4.820312 -16.65625 6 -16.65625 C 7.300781 -16.65625 8.359375 -16.601562 9.171875 -16.5 Z M 9.015625 -15.03125 "/></g></g></g><g fill="#000000" fill-opacity="1"><g transform="translate(99.109001, 23.813365)"><g><path d="M 3.8125 -16.265625 L 3.8125 -3.109375 C 3.789062 -2.617188 3.910156 -2.242188 4.171875 -1.984375 C 4.441406 -1.734375 4.832031 -1.609375 5.34375 -1.609375 L 6.4375 -1.609375 L 6.671875 -0.09375 C 6.253906 0.101562 5.5625 0.203125 4.59375 0.203125 C 3.75 0.203125 3.078125 -0.046875 2.578125 -0.546875 C 2.078125 -1.046875 1.828125 -1.753906 1.828125 -2.671875 L 1.828125 -16.265625 Z M 3.8125 -16.265625 "/></g></g></g><g fill="#000000" fill-opacity="1"><g transform="translate(104.104413, 23.813365)"><g><path d="M 11.84375 -11.3125 L 7.3125 0.625 C 6.320312 3.289062 4.675781 4.675781 2.375 4.78125 L 2.1875 3.484375 C 3.070312 3.203125 3.765625 2.816406 4.265625 2.328125 C 4.765625 1.847656 5.171875 1.234375 5.484375 0.484375 L 5.671875 0 L 5.234375 0 C 4.859375 0 4.625 -0.171875 4.53125 -0.515625 L 0.421875 -11.3125 L 2.53125 -11.3125 L 5.53125 -2.875 C 5.75 -2.238281 5.890625 -1.785156 5.953125 -1.515625 L 6.265625 -1.515625 C 6.390625 -1.816406 6.554688 -2.269531 6.765625 -2.875 L 9.71875 -11.3125 Z M 11.84375 -11.3125 "/></g></g></g></svg>