<svg xmlns="http://www.w3.org/2000/svg" xmlns:xlink="http://www.w3.org/1999/xlink" width="160" zoomAndPan="magnify" viewBox="0 0 120 30.000001" height="40" preserveAspectRatio="xMidYMid meet" version="1.0"><defs><g/><clipPath id="id1"><path d="M 41 7 L 52 7 L 52 29.03125 L 41 29.03125 Z M 41 7 " clip-rule="nonzero"/></clipPath><clipPath id="id2"><path d="M 101.421875 1.328125 L 107.230469 1.328125 L 107.230469 7.132812 L 101.421875 7.132812 Z M 101.421875 1.328125 " clip-rule="nonzero"/></clipPath></defs><g fill="#ffffff" fill-opacity="1"><g transform="translate(2.813353, 23.588711)"><g><path d="M 10.746094 -18.164062 L 13.125 -18.164062 L 13.125 -21.371094 L 0.304688 -21.371094 L 0.304688 -18.164062 L 4.914062 -18.164062 L 4.914062 0 L 8.578125 0 L 8.578125 -18.164062 Z M 10.746094 -18.164062 "/></g></g></g><g fill="#ffffff" fill-opacity="1"><g transform="translate(14.470229, 23.588711)"><g><path d="M 5.984375 -15.753906 C 2.808594 -15.753906 1.070312 -14.105469 1.070312 -11.265625 L 1.070312 -4 C 1.070312 -1.160156 2.808594 0.488281 5.984375 0.488281 C 9.160156 0.488281 10.929688 -1.160156 10.929688 -4 L 10.929688 -5.066406 L 7.632812 -5.066406 L 7.632812 -3.542969 C 7.632812 -2.625 7.144531 -1.894531 5.984375 -1.894531 C 4.824219 -1.894531 4.335938 -2.625 4.335938 -3.542969 L 4.335938 -6.472656 L 10.929688 -6.472656 L 10.929688 -11.265625 C 10.929688 -14.105469 9.160156 -15.753906 5.984375 -15.753906 Z M 4.335938 -8.824219 L 4.335938 -11.722656 C 4.335938 -12.636719 4.824219 -13.371094 5.984375 -13.371094 C 7.144531 -13.371094 7.632812 -12.636719 7.632812 -11.722656 L 7.632812 -8.824219 Z M 4.335938 -8.824219 "/></g></g></g><g fill="#ffffff" fill-opacity="1"><g transform="translate(24.723292, 23.588711)"><g><path d="M 12.820312 -15.753906 C 11.417969 -15.753906 10.410156 -15.234375 9.828125 -14.257812 C 9.25 -15.203125 8.210938 -15.753906 6.777344 -15.753906 C 5.371094 -15.753906 4.367188 -15.234375 3.785156 -14.285156 L 3.386719 -15.265625 L 1.070312 -15.265625 L 1.070312 0 L 4.335938 0 L 4.335938 -11.476562 C 4.335938 -12.273438 4.761719 -12.945312 5.738281 -12.945312 C 6.746094 -12.945312 7.144531 -12.273438 7.144531 -11.476562 L 7.144531 0 L 10.410156 0 L 10.410156 -11.476562 C 10.410156 -12.273438 10.808594 -12.945312 11.785156 -12.945312 C 12.789062 -12.945312 13.15625 -12.273438 13.15625 -11.476562 L 13.15625 0 L 16.453125 0 L 16.453125 -11.875 C 16.453125 -14.285156 15.203125 -15.753906 12.820312 -15.753906 Z M 12.820312 -15.753906 "/></g></g></g><g clip-path="url(#id1)"><g fill="#ffffff" fill-opacity="1"><g transform="translate(40.469562, 23.588711)"><g><path d="M 7.050781 -15.753906 C 5.527344 -15.753906 4.394531 -15.234375 3.785156 -14.195312 L 3.386719 -15.265625 L 1.070312 -15.265625 L 1.070312 6.105469 L 4.335938 6.105469 L 4.335938 -0.425781 C 4.976562 0.183594 5.890625 0.488281 7.050781 0.488281 C 9.617188 0.488281 10.929688 -1.070312 10.929688 -3.601562 L 10.929688 -11.660156 C 10.929688 -14.257812 9.617188 -15.753906 7.050781 -15.753906 Z M 4.335938 -9.800781 L 4.335938 -11.265625 C 4.335938 -12.179688 4.730469 -12.945312 5.984375 -12.945312 C 7.175781 -12.945312 7.632812 -12.242188 7.632812 -11.265625 L 7.632812 -4 C 7.632812 -3.113281 7.175781 -2.320312 5.984375 -2.320312 C 4.824219 -2.320312 4.335938 -3.082031 4.335938 -4 Z M 4.335938 -9.800781 "/></g></g></g></g><g fill="#ffffff" fill-opacity="1"><g transform="translate(50.722625, 23.588711)"><g><path d="M 4.335938 -18.5625 L 4.335938 -21.371094 L 1.070312 -21.371094 L 1.070312 0 L 4.335938 0 Z M 4.335938 -18.5625 "/></g></g></g><g fill="#ffffff" fill-opacity="1"><g transform="translate(54.383835, 23.588711)"><g><path d="M 5.984375 -15.753906 C 2.808594 -15.753906 1.070312 -14.132812 1.070312 -11.449219 L 1.070312 -11.113281 L 4.335938 -11.113281 L 4.335938 -11.722656 C 4.335938 -12.636719 4.824219 -13.371094 5.984375 -13.371094 C 7.144531 -13.371094 7.632812 -12.636719 7.632812 -11.722656 L 7.632812 -9.464844 C 6.992188 -10.074219 6.074219 -10.378906 4.914062 -10.378906 C 2.351562 -10.378906 1.070312 -8.824219 1.070312 -6.289062 L 1.070312 -3.601562 C 1.070312 -1.007812 2.351562 0.488281 4.914062 0.488281 C 6.441406 0.488281 7.570312 -0.03125 8.179688 -1.070312 L 8.578125 0 L 10.929688 0 L 10.929688 -11.449219 C 10.929688 -14.132812 9.160156 -15.753906 5.984375 -15.753906 Z M 7.632812 -4.394531 L 7.632812 -3.542969 C 7.632812 -2.625 7.234375 -1.894531 5.984375 -1.894531 C 4.792969 -1.894531 4.335938 -2.5625 4.335938 -3.542969 L 4.335938 -6.410156 C 4.335938 -7.296875 4.792969 -8.058594 5.984375 -8.058594 C 7.144531 -8.058594 7.632812 -7.328125 7.632812 -6.410156 Z M 7.632812 -4.394531 "/></g></g></g><g fill="#ffffff" fill-opacity="1"><g transform="translate(64.636898, 23.588711)"><g><path d="M 2.410156 -18.316406 L 2.410156 -15.265625 L 0.304688 -15.265625 L 0.304688 -12.484375 L 2.410156 -12.484375 L 2.410156 -3.542969 C 2.410156 -1.160156 3.632812 0 5.769531 0 L 8.242188 0 L 8.242188 -2.808594 L 6.992188 -2.808594 C 6.074219 -2.808594 5.679688 -3.328125 5.679688 -4.304688 L 5.679688 -12.484375 L 8.242188 -12.484375 L 8.242188 -15.265625 L 5.679688 -15.265625 L 5.679688 -18.316406 Z M 2.410156 -18.316406 "/></g></g></g><g fill="#ffffff" fill-opacity="1"><g transform="translate(71.471961, 23.588711)"><g><path d="M 5.984375 -15.753906 C 2.808594 -15.753906 1.070312 -14.105469 1.070312 -11.265625 L 1.070312 -4 C 1.070312 -1.160156 2.808594 0.488281 5.984375 0.488281 C 9.160156 0.488281 10.929688 -1.160156 10.929688 -4 L 10.929688 -5.066406 L 7.632812 -5.066406 L 7.632812 -3.542969 C 7.632812 -2.625 7.144531 -1.894531 5.984375 -1.894531 C 4.824219 -1.894531 4.335938 -2.625 4.335938 -3.542969 L 4.335938 -6.472656 L 10.929688 -6.472656 L 10.929688 -11.265625 C 10.929688 -14.105469 9.160156 -15.753906 5.984375 -15.753906 Z M 4.335938 -8.824219 L 4.335938 -11.722656 C 4.335938 -12.636719 4.824219 -13.371094 5.984375 -13.371094 C 7.144531 -13.371094 7.632812 -12.636719 7.632812 -11.722656 L 7.632812 -8.824219 Z M 4.335938 -8.824219 "/></g></g></g><g fill="#ffffff" fill-opacity="1"><g transform="translate(81.725024, 23.588711)"><g><path d="M 10.5625 -15.265625 L 1.191406 -15.265625 L 1.191406 -12.457031 L 6.351562 -12.457031 L 0.734375 -1.863281 L 0.734375 0 L 10.5625 0 L 10.5625 -2.808594 L 4.945312 -2.808594 L 10.5625 -13.433594 Z M 10.5625 -15.265625 "/></g></g></g><g fill="#ffffff" fill-opacity="1"><g transform="translate(91.306691, 23.588711)"><g><path d="M 5.984375 -15.753906 C 2.808594 -15.753906 1.070312 -14.105469 1.070312 -11.265625 L 1.070312 -4 C 1.070312 -1.160156 2.808594 0.488281 5.984375 0.488281 C 9.160156 0.488281 10.929688 -1.160156 10.929688 -4 L 10.929688 -5.066406 L 7.632812 -5.066406 L 7.632812 -3.542969 C 7.632812 -2.625 7.144531 -1.894531 5.984375 -1.894531 C 4.824219 -1.894531 4.335938 -2.625 4.335938 -3.542969 L 4.335938 -6.472656 L 10.929688 -6.472656 L 10.929688 -11.265625 C 10.929688 -14.105469 9.160156 -15.753906 5.984375 -15.753906 Z M 4.335938 -8.824219 L 4.335938 -11.722656 C 4.335938 -12.636719 4.824219 -13.371094 5.984375 -13.371094 C 7.144531 -13.371094 7.632812 -12.636719 7.632812 -11.722656 L 7.632812 -8.824219 Z M 4.335938 -8.824219 "/></g></g></g><g fill="#ffffff" fill-opacity="1"><g transform="translate(101.559754, 23.588711)"><g><path d="M 0.945312 -21.371094 L 0.945312 -17.859375 L 4.457031 -17.859375 L 4.457031 -21.371094 Z M 4.335938 -12.457031 L 4.335938 -15.265625 L 1.070312 -15.265625 L 1.070312 0 L 4.335938 0 Z M 4.335938 -12.457031 "/></g></g></g><g fill="#ffffff" fill-opacity="1"><g transform="translate(105.22097, 23.588711)"><g><path d="M 7.050781 -15.753906 C 5.527344 -15.753906 4.394531 -15.203125 3.785156 -14.164062 L 3.386719 -15.265625 L 1.070312 -15.265625 L 1.070312 0 L 4.335938 0 L 4.335938 -11.265625 C 4.335938 -12.179688 4.824219 -12.945312 5.984375 -12.945312 C 7.175781 -12.945312 7.632812 -12.148438 7.632812 -11.265625 L 7.632812 0 L 10.929688 0 L 10.929688 -11.660156 C 10.929688 -14.195312 9.617188 -15.753906 7.050781 -15.753906 Z M 7.050781 -15.753906 "/></g></g></g><g clip-path="url(#id2)"><path fill="#4385f5" d="M 104.324219 1.328125 C 102.722656 1.328125 101.421875 2.628906 101.421875 4.230469 C 101.421875 5.832031 102.722656 7.132812 104.324219 7.132812 C 105.929688 7.132812 107.230469 5.832031 107.230469 4.230469 C 107.230469 2.628906 105.929688 1.328125 104.324219 1.328125 " fill-opacity="1" fill-rule="nonzero"/></g></svg>